<svg xmlns="http://www.w3.org/2000/svg" enable-background="new 0 0 64 64" viewBox="0 0 64 64"><path fill="#fbd984" d="M61.35,64H2.65c-1.08,0-1.96-0.88-1.96-1.96V44.59c0-1.08,0.88-1.96,1.96-1.96h58.7
			c1.08,0,1.96,0.88,1.96,1.96v17.45C63.31,63.12,62.43,64,61.35,64z"/><path fill="#dd655b" d="M39.23,55.5H24.77c-1.21,0-2.19-0.98-2.19-2.19l0,0c0-1.21,0.98-2.19,2.19-2.19h14.46
			c1.21,0,2.19,0.98,2.19,2.19l0,0C41.42,54.52,40.44,55.5,39.23,55.5z"/><path fill="#5fc3ab" d="M45.83,42.63H7.09V1.96C7.09,0.88,7.97,0,9.05,0h34.82c1.08,0,1.96,0.88,1.96,1.96V42.63z"/><path fill="#c6c1c1" d="M51.37,42.63H12.63V8.11c0-1.08,0.88-1.96,1.96-1.96h34.82c1.08,0,1.96,0.88,1.96,1.96V42.63z"/><path fill="#f0f3f5" d="M56.91,42.63H18.17V14.27c0-1.08,0.88-1.96,1.96-1.96h34.82c1.08,0,1.96,0.88,1.96,1.96V42.63z"/><path fill="#5bcaee" d="M51.52 19.24H23.56c-.54 0-.98-.44-.98-.98 0-.54.44-.98.98-.98h27.96c.54 0 .98.44.98.98C52.5 18.8 52.06 19.24 51.52 19.24zM51.52 25.38H23.56c-.54 0-.98-.44-.98-.98s.44-.98.98-.98h27.96c.54 0 .98.44.98.98S52.06 25.38 51.52 25.38zM51.52 31.52H23.56c-.54 0-.98-.44-.98-.98s.44-.98.98-.98h27.96c.54 0 .98.44.98.98S52.06 31.52 51.52 31.52zM51.52 37.66H23.56c-.54 0-.98-.44-.98-.98 0-.54.44-.98.98-.98h27.96c.54 0 .98.44.98.98C52.5 37.22 52.06 37.66 51.52 37.66z"/></svg>