<svg xmlns="http://www.w3.org/2000/svg" enable-background="new 0 0 512 512" viewBox="0 0 512 512"><rect width="464" height="32" x="24" y="216" fill="#5D4328"/><rect width="464" height="32" x="24" y="440" fill="#5D4328"/><rect width="32" height="464" x="24" y="24" fill="#5D4328"/><rect width="32" height="464" x="456" y="24" fill="#5D4328" transform="rotate(-180 472 256)"/><rect width="8" height="464" x="480" y="24" fill="#42301D"/><rect width="48" height="160" x="88" y="56" fill="#F8D371"/><rect width="8" height="160" x="128" y="56" fill="#B99D54"/><rect width="48" height="160" x="376" y="56" fill="#598E97" transform="rotate(-180 400 136)"/><rect width="8" height="160" x="416" y="56" fill="#3E646A"/><rect width="48" height="160" x="136" y="56" fill="#CC9258"/><rect width="8" height="160" x="176" y="56" fill="#A67748"/><rect width="32" height="160" x="344" y="56" fill="#994A47" transform="rotate(-180 360 136)"/><rect width="8" height="160" x="368" y="56" fill="#5F2E2C"/><rect width="48" height="136" x="184" y="80" fill="#87D7E5"/><rect width="8" height="136" x="224" y="80" fill="#6DADB9"/><rect width="48" height="136" x="273.592" y="75.904" fill="#DE6B66" transform="rotate(20.617 297.626 143.925)"/><rect width="48" height="32" x="88" y="160" fill="#998346"/><circle cx="160" cy="176" r="16" fill="#976C41"/><rect width="48" height="48" x="184" y="112" fill="#598E97"/><path fill="#F8D371" d="M416 152h-32c-4.418 0-8-3.582-8-8s3.582-8 8-8h32c4.418 0 8 3.582 8 8S420.418 152 416 152zM416 192h-32c-4.418 0-8-3.582-8-8s3.582-8 8-8h32c4.418 0 8 3.582 8 8S420.418 192 416 192z"/><rect width="48" height="144" x="376" y="296" fill="#598E97"/><rect width="8" height="144" x="416" y="296" fill="#3B5E64"/><rect width="48" height="144" x="288" y="296" fill="#598E97"/><rect width="8" height="144" x="328" y="296" fill="#3D6268"/><rect width="40" height="136" x="336" y="304" fill="#F8D371"/><rect width="8" height="136" x="368" y="304" fill="#B49952"/><path fill="#335257" d="M328 376h-32c-4.418 0-8-3.582-8-8s3.582-8 8-8h32c4.418 0 8 3.582 8 8S332.418 376 328 376zM328 400h-32c-4.418 0-8-3.582-8-8s3.582-8 8-8h32c4.418 0 8 3.582 8 8S332.418 400 328 400zM328 424h-32c-4.418 0-8-3.582-8-8s3.582-8 8-8h32c4.418 0 8 3.582 8 8S332.418 424 328 424z"/><rect width="32" height="144" x="256" y="296" fill="#DE6B66"/><rect width="8" height="144" x="280" y="296" fill="#B95955"/><circle cx="272" cy="392" r="16" fill="#994A47"/><rect width="48" height="32" x="376" y="384" fill="#335257"/><path fill="#87D7E5" d="M208,440H88l0,0c11.417-7.611,11.417-24.388,0-32l0,0h120c8.837,0,16,7.163,16,16v0
	C224,432.837,216.837,440,208,440z"/><path fill="#64A0AA" d="M208,408h-16c8.837,0,16,7.163,16,16l0,0c0,8.836-7.163,16-16,16h16c8.837,0,16-7.164,16-16l0,0
	C224,415.163,216.837,408,208,408z"/><path fill="#F8D371" d="M216,408H104l0,0c8.837-8.837,8.837-23.163,0-32l0,0h112c8.837,0,16,7.163,16,16v0
	C232,400.837,224.837,408,216,408z"/><path fill="#B49952" d="M216,376h-16c8.837,0,16,7.163,16,16l0,0c0,8.836-7.163,16-16,16h16c8.837,0,16-7.164,16-16l0,0
	C232,383.163,224.837,376,216,376z"/><path fill="#DE6B66" d="M192,376H88l0,0c13.255-13.255,13.255-34.745,0-48l0,0h104c13.255,0,24,10.745,24,24v0
	C216,365.255,205.255,376,192,376z"/><path fill="#B25652" d="M192,328h-16c13.255,0,24,10.745,24,24l0,0c0,13.255-10.745,24-24,24h16c13.255,0,24-10.745,24-24l0,0
	C216,338.745,205.255,328,192,328z"/></svg>